<?xml version="1.0" encoding="UTF-8"?><svg id="Layer_1" xmlns="http://www.w3.org/2000/svg" viewBox="0 0 278.17 239.53"><defs><style>.cls-1{fill:#231f20;}.cls-2{fill:#c1dcf3;}</style></defs><path class="cls-1" d="M22.27,199.39h-.28v-1.01c0-3.37-3.59-8.25-6.51-8.25h-.42v20c0,1.04.56,1.71,1.23,1.71h1.74v.37H5.08v-.37h2.19c.67,0,1.18-.76,1.18-1.65v-20.05h-.34c-2.5,0-6.67,4.57-6.67,8.41v.84h-.31v-9.62h21.15v9.62Z"/><path class="cls-1" d="M49.41,212.21h-11.95v-.37h.59c.7,0,2.13-.5,2.13-2.05v-9.62h-7.15v9.65c0,1.51,1.01,2.02,1.82,2.02h.81v.37h-11.98v-.37h.62c.7,0,2.1-.5,2.1-2.05v-17.42c0-1.35-.79-2.24-2.05-2.24h-.67v-.36h11.98v.36h-.65c-1.09,0-1.99.95-1.99,2.24v7.35h7.15v-7.35c0-1.35-.79-2.24-2.05-2.24h-.67v-.36h11.95v.36h-.62c-1.09,0-2.02.95-2.02,2.24v17.44c0,1.51,1.04,2.02,1.82,2.02h.81v.37Z"/><path class="cls-1" d="M70.13,212.21h-20.59v-.37h1.94c1.21,0,1.88-.56,1.88-2.3v-17.47c0-1.51-.45-1.94-1.6-1.94h-1.26v-.34h18.57v8.67h-.25l-.06-.76c-.28-3.39-3.37-7.57-7.54-7.57h-1.51v9.9h1.09c1.96,0,4.15-2.08,4.15-4.68v-.79h.34v11.89h-.34v-.87c0-2.58-1.82-5.1-4.07-5.1h-1.18v10.49c0,.34.45.87,1.09.87h2.3c3.03,0,6.56-5.86,6.73-8.55l.06-1.04h.25v9.96Z"/><path class="cls-1" d="M108.99,190.14h-.39c-1.46,0-2.66,2.13-3.62,5.81,0,0-.59,2.33-4.09,16.27h-3.59c-1.51-6.14-2.55-10.43-3.31-13.46l-3.53,13.46h-3.45c-5.27-20.28-5.5-21.01-5.5-21.01-.2-.73-.56-1.07-1.21-1.07h-.59v-.36h9.9v.36h-.39c-.65,0-1.07.36-1.07.98,0,.14.03.28.06.42,0,0,.25.87,3.73,13.49l1.82-7.21c-1.35-5.61-1.46-6.11-1.46-6.11-.28-1.12-.76-1.57-1.23-1.57h-.45v-.36h9.96v.36h-.56c-.67,0-1.01.28-1.01.87v.2s.08.7,3.28,13.97c1.6-6.03,2.33-9.11,2.33-9.11.28-1.09.42-2.05.42-2.86,0-1.99-.79-3.06-1.94-3.06h-.81v-.36h6.7v.36Z"/><path class="cls-1" d="M129.4,212.21h-20.59v-.37h1.94c1.21,0,1.88-.56,1.88-2.3v-17.47c0-1.51-.45-1.94-1.6-1.94h-1.26v-.34h18.57v8.67h-.25l-.06-.76c-.28-3.39-3.37-7.57-7.54-7.57h-1.51v9.9h1.09c1.96,0,4.15-2.08,4.15-4.68v-.79h.34v11.89h-.34v-.87c0-2.58-1.82-5.1-4.07-5.1h-1.18v10.49c0,.34.45.87,1.09.87h2.3c3.03,0,6.56-5.86,6.73-8.55l.06-1.04h.25v9.96Z"/><path class="cls-1" d="M141.43,212.8c-3.62,0-5.1-1.66-7.66-1.66-1.18,0-1.57.81-1.57,1.12l-.28.03v-9.76h.31c.48,2.33,3.73,9.9,8.89,9.9,2.16,0,3.95-1.35,3.95-3.56,0-7.07-13.12-3.25-13.12-12.34,0-3.81,3.76-7.24,8.58-7.24,2.8,0,3.9,1.23,5.55,1.23s2.1-.76,2.1-1.29l.25.03v8.44l-.31-.03c-.22-2.89-2.86-8.02-7.04-8.02-2.08,0-3.42,1.29-3.42,3.39,0,6.87,12.82,1.88,12.82,12.26,0,4.15-3.76,7.49-9.06,7.49Z"/><path class="cls-1" d="M173.62,199.39h-.28v-1.01c0-3.37-3.59-8.25-6.51-8.25h-.42v20c0,1.04.56,1.71,1.23,1.71h1.74v.37h-12.96v-.37h2.19c.67,0,1.18-.76,1.18-1.65v-20.05h-.34c-2.5,0-6.67,4.57-6.67,8.41v.84h-.31v-9.62h21.15v9.62Z"/><path class="cls-1" d="M202.45,212.24h-12.65v-.36h1.09c1.09,0,1.6-.95,1.6-1.99v-16.41l-4.82,18.76h-3.7l-5.44-18.65v13.71c0,2.83,1.4,4.57,2.72,4.57h1.07v.36h-7.94v-.36h.98c1.29,0,2.78-1.6,2.78-4.6v-14.16c0-2.19-1.26-2.97-2.72-2.97h-.76v-.34h9.9l4.43,15.68,4.07-15.68h9.28v.34h-1.15c-1.71,0-2.24.39-2.24,1.57v18.57c0,1.07.7,1.6,1.6,1.6h1.91v.36Z"/><path class="cls-1" d="M227.85,212.21h-12.84v-.37h1.66c.73,0,1.15-.45,1.15-1.18,0-.22-.03-.48-.11-.76l-2.24-7.12h-6l-.95,3.2c-.25.9-.39,1.66-.39,2.36,0,2.33,1.43,3.5,3,3.5h.98v.37h-9.31v-.37h.53c2.33,0,3.98-3.56,4.88-6.45l4.91-15.62h5.13l6.96,20.98c.28.79.81,1.09,1.57,1.09h1.09v.37ZM215.34,202.39l-2.92-9.03-2.86,9.03h5.78Z"/><path class="cls-1" d="M251.23,205.31c0,5.19-.53,7.24-4.71,7.24-3.45,0-4.94-2.24-4.94-4.6,0-1.32.14-2.36.14-4.26,0-2.1-.64-2.97-2.38-2.97h-2.02v9.62c0,1.12.48,1.54,1.23,1.54h1.32v.34h-11.58v-.34h1.18c1.04,0,1.54-.56,1.54-1.6v-18.37c0-1.37-.5-1.77-1.37-1.77h-1.38v-.34h10.83c7.18,0,9.7,2.3,9.7,5.38s-3.42,4.66-5.83,5.3v.11c1.85.42,5.64,1.37,5.64,4.96v4.04c0,.95.28,1.43.87,1.43,1.12,0,1.46-2.64,1.46-5.72h.31ZM239.23,190.14h-1.91v10.21h1.96c2.3,0,3-.7,3-5.05,0-4.66-1.15-5.16-3.06-5.16Z"/><path class="cls-1" d="M278.18,212.24h-13.1v-.39h.48c.64,0,1.32-.34,1.32-1.04,0-.25-.11-.56-.31-.9l-4.8-8.08v7.99c0,1.51,1.04,2.02,1.82,2.02h.67v.37h-11.89v-.37h.67c.7,0,2.13-.5,2.13-2.05v-17.42c0-1.35-.79-2.24-2.08-2.24h-.73v-.36h11.89v.36h-.48c-1.09,0-2.02.95-2.02,2.24v7.15l5.44-4.94c.84-.76,1.18-1.65,1.18-2.44,0-1.12-.7-2.02-1.74-2.02h-.93v-.36h9.84v.36h-.73c-1.01,0-1.91.08-4.09,1.99l-4.88,4.24,9.09,13.97c.81,1.26,1.21,1.54,2.52,1.54h.7v.36Z"/><path class="cls-1" d="M112.26,155.01c.04.09-.01.19-.12.24-.78.49-1.83.78-2.83.78-2.78,0-4.64-1.94-4.64-4.86s1.86-4.86,4.64-4.86c1,0,2.05.3,2.83.78.11.05.16.15.12.24l-.89,1.88c-.05.12-.15.16-.26.11-.5-.28-.98-.38-1.56-.38-1.21,0-2.02.89-2.02,2.23s.81,2.23,2.02,2.23c.58,0,1.07-.1,1.56-.38.11-.05.2-.01.26.11l.89,1.88Z"/><path class="cls-1" d="M117.25,156.02c-2.87,0-4.79-1.94-4.79-4.84s1.92-4.87,4.79-4.87,4.79,1.94,4.79,4.87-1.92,4.84-4.79,4.84ZM117.25,149.04c-1.11,0-1.85.86-1.85,2.14s.74,2.14,1.85,2.14,1.85-.86,1.85-2.14-.74-2.14-1.85-2.14Z"/><path class="cls-1" d="M133.35,146.53c.11,0,.19.09.19.2v8.92c0,.09-.08.19-.19.19h-2.5c-.11,0-.2-.09-.2-.19v-3.96l-1.36,3.95c-.04.11-.22.2-.34.2h-1.48c-.12,0-.3-.09-.34-.2l-1.36-3.95v3.96c0,.09-.09.19-.2.19h-2.5c-.11,0-.19-.09-.19-.19v-8.92c0-.11.08-.2.19-.2h2.82c.18,0,.38.12.46.27l1.86,5.15,1.86-5.15c.08-.15.28-.27.46-.27h2.82Z"/><path class="cls-1" d="M140.96,153.41c.11,0,.2.08.2.17v2.06c0,.09-.09.19-.2.19h-6.27c-.09,0-.19-.11-.22-.2v-8.92c0-.12.07-.19.19-.19h6.14c.12,0,.22.09.22.19v2.04c0,.12-.09.2-.22.2h-3.52v1.07h2.86c.12,0,.19.09.17.18l-.19,1.89c-.01.08-.11.17-.23.17h-2.62v1.15h3.68Z"/><path class="cls-1" d="M146.99,146.53c2.86,0,4.76,1.85,4.76,4.65s-1.9,4.65-4.76,4.65h-3.13c-.09,0-.19-.09-.19-.2v-8.9c0-.11.09-.2.19-.2h3.13ZM147.15,153.41c1.04,0,1.74-.89,1.74-2.23s-.7-2.23-1.74-2.23h-.7v4.45h.7Z"/><path class="cls-1" d="M155.07,146.53c.12,0,.2.09.2.2v8.92c0,.09-.08.19-.2.19h-2.39c-.09,0-.19-.09-.19-.19v-8.92c0-.11.09-.2.19-.2h2.39Z"/><path class="cls-1" d="M163.99,146.53c.12,0,.2.09.2.2v8.92c0,.09-.08.19-.2.19h-2.33c-.09,0-.22-.07-.28-.18l-2.35-4.2v4.18c0,.09-.08.19-.2.19h-2.39c-.11,0-.19-.09-.19-.19v-8.92c0-.11.08-.2.19-.2h2.33c.12,0,.26.07.31.17l2.33,4.2v-4.17c0-.11.09-.2.19-.2h2.39Z"/><path class="cls-1" d="M171.62,153.41c.11,0,.2.08.2.17v2.06c0,.09-.09.19-.2.19h-6.27c-.09,0-.19-.11-.22-.2v-8.92c0-.12.07-.19.19-.19h6.14c.12,0,.22.09.22.19v2.04c0,.12-.09.2-.22.2h-3.52v1.07h2.86c.12,0,.19.09.17.18l-.19,1.89c-.01.08-.11.17-.23.17h-2.62v1.15h3.68Z"/><path class="cls-1" d="M124.29,162.71c.13,0,.2.11.16.23l-2.46,8.86c-.04.12-.18.21-.3.21h-2.35c-.12,0-.28-.09-.31-.21l-1.23-4.75-1.23,4.75c-.03.12-.19.21-.31.21h-2.35c-.12,0-.26-.09-.3-.21l-2.46-8.86c-.04-.12.03-.23.16-.23h3.02c.13,0,.28.11.31.23l.77,4.03,1.04-4.03c.04-.13.2-.23.36-.23h1.94c.16,0,.32.09.36.23l1.04,4.03.77-4.03c.03-.12.18-.23.31-.23h3.02Z"/><path class="cls-1" d="M127.39,162.71c.12,0,.2.09.2.2v8.92c0,.09-.08.19-.2.19h-2.39c-.09,0-.19-.09-.19-.19v-8.92c0-.11.09-.2.19-.2h2.39Z"/><path class="cls-1" d="M135.52,162.71c.12,0,.2.09.19.19l-.2,2.05c-.01.11-.12.19-.22.19h-2.01v6.69c0,.09-.08.19-.19.19h-2.39c-.11,0-.2-.09-.2-.19v-6.69h-2.24c-.09,0-.19-.08-.19-.19v-2.04c0-.11.09-.2.19-.2h7.26Z"/><path class="cls-1" d="M143.71,162.71c.12,0,.2.09.2.2v8.92c0,.09-.08.19-.2.19h-2.52c-.11,0-.19-.09-.19-.19v-3.02h-1.89v3.02c0,.09-.08.19-.2.19h-2.52c-.09,0-.19-.09-.19-.19v-8.92c0-.11.09-.2.19-.2h2.52c.12,0,.2.09.2.2v3.52h1.89v-3.52c0-.11.08-.2.19-.2h2.52Z"/><path class="cls-1" d="M157.09,162.71c.11,0,.19.09.19.2v8.92c0,.09-.08.19-.19.19h-2.5c-.11,0-.2-.09-.2-.19v-3.97l-1.36,3.95c-.04.11-.22.2-.34.2h-1.48c-.12,0-.3-.09-.34-.2l-1.36-3.95v3.97c0,.09-.09.19-.2.19h-2.5c-.11,0-.19-.09-.19-.19v-8.92c0-.11.08-.2.19-.2h2.82c.18,0,.38.12.46.27l1.86,5.15,1.86-5.15c.08-.15.28-.27.46-.27h2.82Z"/><path class="cls-1" d="M164.71,169.58c.11,0,.2.08.2.18v2.06c0,.09-.09.19-.2.19h-6.27c-.09,0-.19-.11-.22-.2v-8.92c0-.12.07-.19.19-.19h6.14c.12,0,.22.09.22.19v2.04c0,.12-.09.2-.22.2h-3.52v1.07h2.86c.12,0,.19.09.17.17l-.19,1.89c-.01.08-.11.18-.23.18h-2.62v1.15h3.68Z"/><path class="cls-1" d="M134.54,178.96c-.03-.06,0-.12.04-.17.51-.32,1.23-.51,1.94-.51,1.55,0,2.27.82,2.27,2.6v2.32c0,.07-.06.13-.13.13h-1.13c-.07,0-.14-.06-.14-.13l-.06-.24c-.29.31-.89.51-1.54.51-1.03,0-1.71-.66-1.7-1.65,0-.88.69-1.46,1.7-1.46.52,0,.99.19,1.16.47v-.38c0-.38-.28-.64-.69-.64-.35,0-.78.12-1.08.29-.04.03-.1,0-.13-.07l-.51-1.08ZM136.95,181.71c-.15-.15-.3-.22-.49-.22-.22,0-.38.12-.38.32s.15.32.38.32c.19,0,.34-.07.49-.22v-.2Z"/><path class="cls-1" d="M142.36,178.4c.08,0,.13.05.13.12l-.1.87c0,.07-.06.13-.13.13h-.57v3.66c0,.07-.06.13-.13.13h-1.58c-.07,0-.13-.06-.13-.13v-3.66h-.51c-.06,0-.13-.05-.13-.12v-.87c0-.08.06-.13.13-.13h.51v-.98c0-.06.06-.12.13-.12l1.58-.15c.07,0,.13.06.13.12v1.13h.67Z"/><path class="cls-1" d="M224.6,225.89h-2.77v-.1h.22c.24,0,.35-.17.35-.41v-4.03c0-.35-.17-.46-.38-.46h-.21v-.08c.48,0,1.79-.67,2.04-1v5.48c0,.34.21.5.38.5h.36v.1Z"/><path class="cls-1" d="M233.11,220.07h-.13c-.35,0-.82.27-.82,1.08v4.74h-1.4l-2.7-5.05s0,3.58,0,3.65c0,.83.33,1.31.88,1.31h.21v.1h-2.07v-.1h.24c.29,0,.65-.49.65-1.35v-3.66c0-.47-.38-.72-.65-.72h-.13v-.1h2.68l2.2,4.18v-3c0-.66-.38-1.07-.76-1.07h-.33v-.1h2.15v.1Z"/><path class="cls-1" d="M236.58,223.82h-2.09c0,.08,0,.16,0,.24,0,1.5.24,1.81.75,1.81.81,0,1.42-.75,1.42-1.45h.1c0,.71-.57,1.58-1.69,1.58-1.27,0-2.12-.82-2.12-2.06s.96-2.15,2.02-2.15c1.19,0,1.81.95,1.81,1.85,0,.15-.07.18-.2.18ZM235,221.89c-.34,0-.49.47-.51,1.82h.68c.1,0,.18.02.18-.13,0-1.35.02-1.69-.35-1.69Z"/><path class="cls-1" d="M243.13,221.98h-.08c-.33,0-.63.38-.86,1.14l-.84,2.77h-.81l-.75-2.72-.78,2.72h-.77l-1.02-3.61c-.05-.19-.19-.3-.36-.3h-.14v-.1h2.18v.1h-.07c-.08,0-.13.04-.13.14,0,.02,0,.05,0,.08l.62,2.25.42-1.44-.21-.77c-.04-.15-.14-.27-.27-.27h-.07v-.1h2.12v.1h-.09c-.09,0-.17.06-.17.18,0,.02,0,.05.01.08l.58,2.32.45-1.46c.06-.19.08-.36.08-.5,0-.42-.23-.62-.42-.62h-.15v-.1h1.51v.1Z"/><path class="cls-1" d="M246.83,224.32c0,.85-.46,1.7-1.61,1.7-1.29,0-2.27-.87-2.27-2.13,0-1.16,1.01-2.11,2.38-2.11.9,0,1.46.59,1.46,1.2,0,.55-.4.87-.86.87-.52,0-.9-.37-.9-.81s.33-.79.81-.79c.21,0,.33.07.35.07s.02-.03.02-.06c0-.08-.28-.41-.81-.41-.45,0-.81.4-.81,2.16,0,1.5.27,1.89.81,1.89.78,0,1.36-.7,1.36-1.6h.08Z"/><path class="cls-1" d="M251.48,224.82c0,.72-.15,1.18-.93,1.18-.96,0-1.1-.81-1.12-.81-.03,0-.07.2-.21.39-.13.2-.3.39-.84.39-.78,0-1.29-.43-1.29-1.06,0-.98,1.01-1.02,1.41-1.12s.93-.21.93-1.14c0-.67-.21-.79-.56-.79s-.71.19-.71.3c0,.04.01.04.03.04.02,0,.05,0,.08,0,.37,0,.64.31.64.67,0,.42-.35.78-.75.78s-.78-.3-.78-.79c0-.55.56-1.07,1.76-1.07,1.02,0,1.72.4,1.72,1.19v2.54c0,.19.07.27.16.27.16,0,.35-.34.35-.85v-.1h.1ZM249.38,223.39s-.12.13-.27.25c-.13.1-.48.24-.48,1.23,0,.84.03.92.21.92.23,0,.56-.59.56-1.09v-1.27h0s0-.04-.02-.04Z"/><path class="cls-1" d="M253.84,226.04c-.65,0-1.1-.33-1.47-.33-.32,0-.4.16-.42.22h-.07v-1.86h.06c.1.49.85,1.88,1.81,1.88.39,0,.63-.19.63-.58,0-.53-.6-.66-1.21-.88-.61-.22-1.23-.53-1.23-1.43,0-.81.82-1.35,1.67-1.35.46,0,.89.24,1.1.24s.25-.13.25-.17h.07v1.38h-.05c-.1-.49-.58-1.36-1.35-1.36-.36,0-.56.23-.56.5,0,.55.54.68,1.11.86.62.19,1.27.45,1.27,1.41,0,1.1-1.01,1.47-1.61,1.47Z"/><path class="cls-1" d="M258.3,224.55c0,1.1-.44,1.46-1.13,1.46-.64,0-1.13-.26-1.13-.85v-3.17h-.41v-.11h.25c.75,0,1.64-.64,1.64-1.46h.1v1.46h.68v.11h-.68v3.35c0,.28.08.32.19.32.2,0,.41-.38.41-1.11h.09Z"/><path class="cls-1" d="M261.2,225.89h-2.61v-.1h.22c.21,0,.35-.15.35-.35v-5.05c0-.2-.1-.33-.3-.33h-.2v-.1h2.05v5.47c0,.2.09.35.27.35h.21v.1Z"/><path class="cls-1" d="M265.04,223.82h-2.09c0,.08,0,.16,0,.24,0,1.5.24,1.81.75,1.81.81,0,1.42-.75,1.42-1.45h.1c0,.71-.57,1.58-1.69,1.58-1.27,0-2.12-.82-2.12-2.06s.96-2.15,2.02-2.15c1.19,0,1.81.95,1.81,1.85,0,.15-.07.18-.2.18ZM263.46,221.89c-.34,0-.49.47-.51,1.82h.68c.1,0,.18.02.18-.13,0-1.35.02-1.69-.35-1.69Z"/><path class="cls-1" d="M270.63,223.37c-.23,0-.41-.04-.53-.09v2c0,.35.17.51.6.51h.3v.1h-3.38v-.1h.25c.35,0,.5-.2.5-.54v-4.76c0-.33-.21-.44-.42-.44h-.33v-.09h3.29c1.24,0,1.98.83,1.98,1.64,0,1.06-.85,1.76-2.26,1.76ZM270.49,220.06h-.39v3.11c.09.06.21.1.41.1.47,0,.67-.16.67-1.6,0-1.58-.33-1.61-.68-1.61Z"/><path class="cls-1" d="M275.8,225.89h-2.61v-.1h.22c.21,0,.35-.15.35-.35v-5.05c0-.2-.1-.33-.3-.33h-.2v-.1h2.05v5.47c0,.2.09.35.27.35h.21v.1Z"/><path class="cls-1" d="M277.03,226c-.5,0-.9-.39-.9-.87s.4-.87.9-.87.9.39.9.87-.4.87-.9.87Z"/><path class="cls-1" d="M256.95,228.94h-.1c-.38,0-.7.56-.95,1.53,0,0-.16.62-1.08,4.29h-.95c-.4-1.62-.67-2.75-.87-3.55l-.93,3.55h-.91c-1.39-5.35-1.45-5.54-1.45-5.54-.05-.19-.15-.28-.32-.28h-.16v-.1h2.61v.1h-.1c-.17,0-.28.1-.28.26,0,.04,0,.07.01.11,0,0,.07.23.98,3.56l.48-1.9c-.35-1.48-.38-1.61-.38-1.61-.07-.29-.2-.41-.33-.41h-.12v-.1h2.63v.1h-.15c-.18,0-.27.07-.27.23v.05s.02.19.87,3.69c.42-1.59.61-2.41.61-2.41.07-.29.11-.54.11-.75,0-.53-.21-.81-.51-.81h-.21v-.1h1.77v.1Z"/><path class="cls-1" d="M261.58,232.63c0,1.27-.46,2.35-1.52,2.35s-1.22-1.04-2.02-1.04c-.31,0-.64.27-.64.61,0,.14.01.2.03.23h-.12c-.04-.05-.08-.26-.08-.59,0-.98.62-1.59,1.15-1.89.33-.18,1.51-.57,1.51-2.1,0-.99-.42-1.33-.92-1.33s-1.15.47-1.15.9c0,.07,0,.11.04.11.04,0,.25-.19.55-.19.47,0,.75.38.75.78,0,.42-.33.77-.84.77s-.85-.45-.85-.97c0-.7.59-1.55,1.94-1.55,1.26,0,2.09.67,2.09,1.59,0,1.47-1.93,1.7-2.43,1.84-1.1.32-1.72,1.12-1.72,2.02v.06s0,.05.02.05c0-.07.4-.97,1.74-.97.75,0,.92.1,1.5.1.64,0,.93-.37.93-.78h.06Z"/><path class="cls-1" d="M267,234.76h-2.77v-.1h.22c.24,0,.36-.17.36-.42v-4.03c0-.35-.17-.46-.38-.46h-.21v-.08c.48,0,1.79-.67,2.04-1v5.48c0,.34.21.5.38.5h.36v.1Z"/><path class="cls-1" d="M272.51,234.76h-5.43v-.1h.51c.32,0,.5-.15.5-.61v-4.61c0-.4-.12-.51-.42-.51h-.33v-.09h4.9v2.29h-.07v-.2c-.09-.9-.9-2-2.01-2h-.4v2.61h.29c.52,0,1.09-.55,1.09-1.24v-.21h.09v3.14h-.09v-.23c0-.68-.48-1.35-1.07-1.35h-.31v2.77c0,.09.12.23.29.23h.61c.8,0,1.73-1.55,1.78-2.26v-.27h.08v2.63Z"/><path class="cls-1" d="M277.91,231.14h-.07v-.2c-.09-.9-.9-1.99-2.01-1.99h-.39v2.6h.29c.52,0,1.09-.39,1.09-1.08v-.12h.1v2.67h-.1v-.17c0-.68-.47-1.18-1.07-1.18h-.31v2.45c0,.36.11.55.42.55h.27v.1h-3.18v-.1h.32c.33,0,.5-.09.5-.55v-4.67c0-.4-.12-.5-.43-.5h-.33v-.1h4.9v2.29Z"/><path class="cls-2" d="M117.82,137.53V21.94c0-17.86,8.26-21.38,12.64-21.38,1.61,0,5.94-.32,10.93,5.31,8.61,9.7,18.95,29.29,18.95,42.44v89.22h-42.52Z"/><path d="M160.9,138.09h-43.64V21.94C117.27,1.06,128.26,0,130.46,0h.24c1.85-.01,6.18-.05,11.11,5.5,9.22,10.39,19.09,30.07,19.09,42.81v89.78ZM118.38,136.98h41.41V48.31c0-12.48-9.73-31.83-18.81-42.07-4.59-5.17-8.57-5.14-10.27-5.13h-.25c-2.02,0-12.08,1.01-12.08,20.83v115.03Z"/><path d="M160.11,137.1c-.13-.06-13.52-6.25-27.84-6.25-11.97,0-14,2.13-14.02,2.15l-.88-.68c.2-.26,2.27-2.58,14.9-2.58,14.58,0,28.17,6.3,28.31,6.36l-.47,1.01Z"/><path d="M160.03,130.38c-.13-.09-13.49-9.14-27.76-9.14-12.06,0-13.96,2.51-13.98,2.53l-.94-.59c.19-.31,2.27-3.06,14.92-3.06,14.62,0,28.25,9.24,28.39,9.33l-.63.92Z"/><path d="M159.98,123.27c-.13-.12-13.47-11.91-27.7-11.91-12.02,0-13.93,3.52-13.95,3.56l-1.01-.47c.05-.12.58-1.18,2.73-2.21,2.76-1.32,6.88-1.99,12.23-1.99,14.66,0,28.31,12.07,28.45,12.19l-.74.83Z"/><path d="M159.93,116.14s-3.4-3.78-8.49-7.47c-4.66-3.38-11.78-7.42-19.17-7.42-12.05,0-13.91,4.45-13.93,4.49l-1.04-.38c.08-.21,2.02-5.22,14.97-5.22,7.7,0,15.04,4.16,19.85,7.64,5.18,3.76,8.61,7.58,8.64,7.62l-.83.74Z"/><path d="M159.92,108.59s-3.62-4.33-8.82-8.56c-4.76-3.87-11.89-8.48-18.83-8.48-11.1,0-13.93,5.11-13.96,5.16l-.98-.52c.12-.23,3.18-5.76,14.94-5.76,5.84,0,12.41,2.94,19.55,8.75,5.28,4.29,8.92,8.65,8.95,8.7l-.86.71Z"/><path d="M159.89,101.41c-.14-.2-14.31-19.86-27.62-19.86-5.78,0-9.27,1.56-11.17,2.87-2.05,1.41-2.77,2.84-2.77,2.86l-1-.48c.12-.26,3.17-6.36,14.95-6.36,5.85,0,12.44,3.43,19.58,10.2,5.28,5,8.91,10.08,8.95,10.13l-.91.65Z"/><path d="M159.87,94.76c-.14-.23-14.31-23.16-27.6-23.16-5.1,0-8.62,1.72-10.69,3.16-2.24,1.56-3.29,3.15-3.3,3.17l-.93-.6c.18-.28,4.53-6.83,14.92-6.83,5.87,0,12.47,4,19.61,11.9,5.27,5.83,8.9,11.74,8.94,11.8l-.95.58Z"/><path d="M159.86,87.83c-.14-.26-14.32-25.8-27.59-25.8-5.1,0-8.62,1.72-10.69,3.16-2.24,1.56-3.29,3.15-3.3,3.17l-.93-.6c.18-.28,4.53-6.83,14.92-6.83,5.88,0,12.49,4.46,19.63,13.25,5.27,6.49,8.9,13.06,8.93,13.13l-.97.53Z"/><path d="M159.85,80.15c-.14-.28-14.32-27.67-27.58-27.67-5.09,0-8.62,1.83-10.68,3.36-2.24,1.67-3.29,3.36-3.3,3.37l-.95-.58c.18-.3,4.53-7.27,14.92-7.27,5.89,0,12.5,4.78,19.64,14.21,5.27,6.95,8.89,14,8.93,14.07l-.99.51Z"/><path d="M159.84,73.49c-.14-.31-14.32-30.66-27.57-30.66-9.72,0-13.91,8.05-13.95,8.13l-.99-.5c.04-.09,4.52-8.75,14.95-8.75,5.9,0,12.51,5.29,19.66,15.73,5.26,7.7,8.89,15.49,8.92,15.57l-1.01.47Z"/><path d="M159.84,64.23c-.14-.33-14.33-32.78-27.56-32.78-9.71,0-13.9,8.61-13.95,8.7l-1.01-.47c.04-.09,4.52-9.34,14.95-9.34,5.91,0,12.52,5.66,19.67,16.81,5.26,8.22,8.88,16.55,8.92,16.64l-1.02.44Z"/><path d="M159.83,55.44c-.04-.09-3.63-9.25-8.85-18.29-4.76-8.24-11.87-18.07-18.71-18.07-11.61,0-13.82,9.8-13.9,10.21l-1.09-.23c.02-.11,2.46-11.1,14.99-11.1,5.92,0,12.54,6.27,19.68,18.64,5.26,9.11,8.88,18.34,8.91,18.43l-1.04.4Z"/><path d="M159.81,47.65c-.14-.38-14.32-38.34-27.54-38.34-9.68,0-13.88,11.66-13.92,11.78l-1.05-.37c.04-.13,1.12-3.16,3.48-6.23,3.17-4.12,7.14-6.29,11.49-6.29,5.92,0,12.55,6.61,19.68,19.64,5.25,9.6,8.87,19.33,8.9,19.43l-1.04.39Z"/><path d="M159.48,44.04c-.14-.4-14-39.59-27.2-39.59-9.67,0-13.59,12.13-13.63,12.25l-1.06-.33c.04-.13,4.2-13.03,14.69-13.03,5.93,0,12.5,6.82,19.52,20.28,5.17,9.91,8.7,19.96,8.74,20.06l-1.05.37Z"/><path d="M159.82,63.45c-.13-.36-13.02-36.15-28.86-36.15-10.52,0-12.57,11.42-12.59,11.53l-1.1-.19c.02-.12,2.24-12.46,13.69-12.46,7.02,0,14.2,6.24,21.33,18.54,5.26,9.07,8.54,18.26,8.58,18.35l-1.05.37Z"/><path d="M159.82,58.33c-.13-.36-13.02-36.15-28.86-36.15-4.39,0-7.84,1.92-10.25,5.71-1.82,2.87-2.34,5.8-2.34,5.82l-1.1-.19c.02-.12,2.24-12.46,13.69-12.46,7.02,0,14.2,6.24,21.33,18.54,5.26,9.07,8.54,18.26,8.58,18.35l-1.05.37Z"/><rect x="128.86" y="4.24" width="1.11" height="14.57"/><rect x="128.86" y="31.15" width="1.11" height="106.38"/><rect x="128.86" y="21.71" width="1.11" height="5.04"/><rect x="139.43" y="33.97" width="1.11" height="103.56"/><rect x="139.43" y="25.16" width="1.11" height="5.12"/><rect x="139.43" y="7.62" width="1.11" height="14.3"/><rect x="146.2" y="40.81" width="1.11" height="96.72"/><rect x="146.2" y="32.21" width="1.11" height="5.12"/><rect x="146.2" y="16.01" width="1.11" height="13.5"/><rect x="151.21" y="47.92" width="1.11" height="89.61"/><rect x="151.21" y="39.8" width="1.11" height="5.12"/><rect x="151.21" y="24.77" width="1.11" height="12.62"/><rect x="154.97" y="54.33" width="1.11" height="83.2"/><rect x="154.97" y="46.9" width="1.11" height="5.12"/><rect x="154.97" y="32.72" width="1.11" height="14.18"/><rect x="157.74" y="59.75" width="1.11" height="77.78"/><rect x="157.74" y="52.99" width="1.11" height="5.12"/><rect x="157.74" y="39.35" width="1.11" height="13.64"/><rect x="119.88" y="36.22" width="1.11" height="101.31"/><rect x="119.88" y="27.3" width="1.11" height="5.12"/><rect x="119.88" y="11.61" width="1.11" height="12.27"/></svg>